<?xml version="1.0" encoding="utf-8"?>
<!-- Generator: Adobe Illustrator 23.0.3, SVG Export Plug-In . SVG Version: 6.00 Build 0)  -->
<svg version="1.1" id="Icons" xmlns="http://www.w3.org/2000/svg" xmlns:xlink="http://www.w3.org/1999/xlink" x="0px" y="0px"
	 viewBox="0 0 32 32" style="enable-background:new 0 0 32 32;" xml:space="preserve">
<style type="text/css">
	.st0{fill:none;stroke:#000000;stroke-width:2;stroke-linecap:round;stroke-linejoin:round;stroke-miterlimit:10;}
</style>
<path d="M29.9,16.4c0.1-0.2,0.1-0.5,0-0.8c-0.1-0.1-0.1-0.2-0.2-0.3l-4-4c-0.4-0.4-1-0.4-1.4,0s-0.4,1,0,1.4l2.3,2.3H17V5.4l2.3,2.3
	C19.5,7.9,19.7,8,20,8s0.5-0.1,0.7-0.3c0.4-0.4,0.4-1,0-1.4l-4-4c-0.1-0.1-0.2-0.2-0.3-0.2c-0.2-0.1-0.5-0.1-0.8,0
	c-0.1,0.1-0.2,0.1-0.3,0.2l-4,4c-0.4,0.4-0.4,1,0,1.4s1,0.4,1.4,0L15,5.4V15H5.4l2.3-2.3c0.4-0.4,0.4-1,0-1.4s-1-0.4-1.4,0l-4,4
	c-0.1,0.1-0.2,0.2-0.2,0.3c-0.1,0.2-0.1,0.5,0,0.8c0.1,0.1,0.1,0.2,0.2,0.3l4,4C6.5,20.9,6.7,21,7,21s0.5-0.1,0.7-0.3
	c0.4-0.4,0.4-1,0-1.4L5.4,17H15v9.6l-2.3-2.3c-0.4-0.4-1-0.4-1.4,0s-0.4,1,0,1.4l4,4c0.1,0.1,0.2,0.2,0.3,0.2C15.7,30,15.9,30,16,30
	s0.3,0,0.4-0.1c0.1-0.1,0.2-0.1,0.3-0.2l4-4c0.4-0.4,0.4-1,0-1.4s-1-0.4-1.4,0L17,26.6V17h9.6l-2.3,2.3c-0.4,0.4-0.4,1,0,1.4
	c0.2,0.2,0.5,0.3,0.7,0.3s0.5-0.1,0.7-0.3l4-4C29.8,16.6,29.9,16.5,29.9,16.4z"/>
</svg>
