<?xml version="1.0" encoding="utf-8"?>
<!-- Generator: Adobe Illustrator 23.0.3, SVG Export Plug-In . SVG Version: 6.00 Build 0)  -->
<svg version="1.1" id="Icons" xmlns="http://www.w3.org/2000/svg" xmlns:xlink="http://www.w3.org/1999/xlink" x="0px" y="0px"
	 viewBox="0 0 32 32" style="enable-background:new 0 0 32 32;" xml:space="preserve">
<style type="text/css">
	.st0{fill:none;stroke:#000000;stroke-width:2;stroke-linecap:round;stroke-linejoin:round;stroke-miterlimit:10;}
</style>
<path class="st0" d="M7,27c0,1.1-0.9,2-2,2s-2-0.9-2-2s2-3,2-3S7,25.9,7,27z"/>
<path class="st0" d="M3.6,19.6L3.6,19.6c0.9,0.9,2.3,0.9,3.2,0L19.8,6.7l0,0c-1.1-1.1-2.9-1.1-4,0l-4,4c-2.2,2.2-4.7,4-7.6,5.2l0,0
	C2.8,16.6,2.5,18.5,3.6,19.6z"/>
<path class="st0" d="M19.8,6.7L28,16c1.3,1.5,1.2,3.7-0.2,5.1l-5.6,5.6c-1.4,1.4-3.6,1.5-5.1,0.2l-9.3-8.2"/>
<circle class="st0" cx="18" cy="17" r="2"/>
<path class="st0" d="M19.3,6.3C23,3.5,26,2,27,3c1.4,1.4-2,7-7.6,12.6"/>
</svg>
