<?xml version="1.0" encoding="utf-8"?>
<!-- Generator: Adobe Illustrator 23.0.3, SVG Export Plug-In . SVG Version: 6.00 Build 0)  -->
<svg version="1.1" id="Icons" xmlns="http://www.w3.org/2000/svg" xmlns:xlink="http://www.w3.org/1999/xlink" x="0px" y="0px"
	 viewBox="0 0 32 32" style="enable-background:new 0 0 32 32;" xml:space="preserve">
<style type="text/css">
	.st0{fill:none;stroke:#000000;stroke-width:2;stroke-linecap:round;stroke-linejoin:round;stroke-miterlimit:10;}
</style>
<line class="st0" x1="15" y1="8" x2="23" y2="16"/>
<path class="st0" d="M17,10l6-6c1.1-1.1,2.9-1.1,4,0l0,0c1.1,1.1,1.1,2.9,0,4l-6,6"/>
<path class="st0" d="M16.7,10.3l-11,11c-0.6,0.6-0.8,1.3-0.8,2.1C4.4,23.7,4,24.3,4,25c0,1.1,0.9,2,2,2c0.7,0,1.3-0.4,1.7-0.9
	c0.7,0,1.5-0.3,2.1-0.8l11-11"/>
</svg>
