<?xml version="1.0" encoding="UTF-8" standalone="no"?> <svg width="24" height="24" viewBox="0 0 24 24" fill="none" xmlns="http://www.w3.org/2000/svg">
<path fill-rule="evenodd" clip-rule="evenodd" d="M1.29289 1.29289C1.68342 0.902369 2.31658 0.902369 2.70711 1.29289L4.20711 2.79289C4.59763 3.18342 4.59763 3.81658 4.20711 4.20711C3.81658 4.59763 3.18342 4.59763 2.79289 4.20711L1.29289 2.70711C0.902369 2.31658 0.902369 1.68342 1.29289 1.29289ZM13.7071 1.29289C14.0976 1.68342 14.0976 2.31658 13.7071 2.70711L12.2071 4.20711C11.8166 4.59763 11.1834 4.59763 10.7929 4.20711C10.4024 3.81658 10.4024 3.18342 10.7929 2.79289L12.2929 1.29289C12.6834 0.902369 13.3166 0.902369 13.7071 1.29289ZM5.29289 5.29289C6.51184 4.07394 8.48816 4.07394 9.70711 5.29289L22.2071 17.7929C23.4261 19.0118 23.4261 20.9882 22.2071 22.2071C20.9882 23.4261 19.0118 23.4261 17.7929 22.2071L5.29289 9.70711C4.07394 8.48816 4.07394 6.51184 5.29289 5.29289ZM8.29289 6.70711C7.85499 6.2692 7.14501 6.2692 6.70711 6.70711C6.2692 7.14501 6.2692 7.85499 6.70711 8.29289L8 9.58579L9.58579 8L8.29289 6.70711ZM11 9.41421L9.41421 11L19.2071 20.7929C19.645 21.2308 20.355 21.2308 20.7929 20.7929C21.2308 20.355 21.2308 19.645 20.7929 19.2071L11 9.41421ZM4.20711 10.7929C4.59763 11.1834 4.59763 11.8166 4.20711 12.2071L2.70711 13.7071C2.31658 14.0976 1.68342 14.0976 1.29289 13.7071C0.902369 13.3166 0.902369 12.6834 1.29289 12.2929L2.79289 10.7929C3.18342 10.4024 3.81658 10.4024 4.20711 10.7929Z" fill="#000000"/>
</svg>
