<?xml version="1.0" encoding="utf-8"?>
<!-- Generator: Adobe Illustrator 23.0.3, SVG Export Plug-In . SVG Version: 6.00 Build 0)  -->
<svg version="1.1" id="Icons" xmlns="http://www.w3.org/2000/svg" xmlns:xlink="http://www.w3.org/1999/xlink" x="0px" y="0px"
	 viewBox="0 0 32 32" style="enable-background:new 0 0 32 32;" xml:space="preserve">
<style type="text/css">
	.st0{fill:none;stroke:#000000;stroke-width:2;stroke-linecap:round;stroke-linejoin:round;stroke-miterlimit:10;}
</style>
<g>
	<path d="M16,4c-1.7,0-3.3,0.3-4.8,1l0.7-1.6c0.2-0.5,0-1.1-0.5-1.3c-0.5-0.2-1.1,0-1.3,0.5l-2,4.5C7.9,7.5,8.1,8,8.4,8.3
		c0.4,0.3,0.9,0.3,1.2,0C11.5,6.8,13.7,6,16,6c5.5,0,10,4.5,10,10s-4.5,10-10,10S6,21.5,6,16c0-1.9,0.6-3.8,1.6-5.5
		c0.3-0.5,0.2-1.1-0.3-1.4C6.9,8.9,6.2,9,5.9,9.5C4.7,11.4,4,13.7,4,16c0,6.6,5.4,12,12,12s12-5.4,12-12S22.6,4,16,4z"/>
	<path d="M20,21c0.6,0,1-0.4,1-1v-8c0-0.6-0.4-1-1-1h-8c-0.6,0-1,0.4-1,1v8c0,0.6,0.4,1,1,1H20z"/>
</g>
</svg>
