<?xml version="1.0" encoding="utf-8"?>
<!-- Generator: Adobe Illustrator 23.0.3, SVG Export Plug-In . SVG Version: 6.00 Build 0)  -->
<svg version="1.1" id="Icons" xmlns="http://www.w3.org/2000/svg" xmlns:xlink="http://www.w3.org/1999/xlink" x="0px" y="0px"
	 viewBox="0 0 32 32" style="enable-background:new 0 0 32 32;" xml:space="preserve">
<style type="text/css">
	.st0{fill:none;stroke:#000000;stroke-width:2;stroke-linecap:round;stroke-linejoin:round;stroke-miterlimit:10;}
</style>
<g>
	<path d="M29,21c-0.6,0-1,0.4-1,1v3h-3c-0.6,0-1,0.4-1,1s0.4,1,1,1h4c0.6,0,1-0.4,1-1v-4C30,21.4,29.6,21,29,21z"/>
	<path d="M19,25h-6c-0.6,0-1,0.4-1,1s0.4,1,1,1h6c0.6,0,1-0.4,1-1S19.6,25,19,25z"/>
	<path d="M7,25H4v-3c0-0.6-0.4-1-1-1s-1,0.4-1,1v4c0,0.6,0.4,1,1,1h4c0.6,0,1-0.4,1-1S7.6,25,7,25z"/>
	<path d="M3,19c0.6,0,1-0.4,1-1v-4c0-0.6-0.4-1-1-1s-1,0.4-1,1v4C2,18.6,2.4,19,3,19z"/>
	<path d="M7,5H3C2.4,5,2,5.4,2,6v4c0,0.6,0.4,1,1,1s1-0.4,1-1V7h3c0.6,0,1-0.4,1-1S7.6,5,7,5z"/>
	<path d="M19,5h-6c-0.6,0-1,0.4-1,1s0.4,1,1,1h6c0.6,0,1-0.4,1-1S19.6,5,19,5z"/>
	<path d="M29,5h-4c-0.6,0-1,0.4-1,1s0.4,1,1,1h3v3c0,0.6,0.4,1,1,1s1-0.4,1-1V6C30,5.4,29.6,5,29,5z"/>
	<path d="M29,13c-0.6,0-1,0.4-1,1v4c0,0.6,0.4,1,1,1s1-0.4,1-1v-4C30,13.4,29.6,13,29,13z"/>
</g>
</svg>
