<?xml version="1.0" encoding="utf-8"?>
<!-- Generator: Adobe Illustrator 23.0.3, SVG Export Plug-In . SVG Version: 6.00 Build 0)  -->
<svg version="1.1" id="Icons" xmlns="http://www.w3.org/2000/svg" xmlns:xlink="http://www.w3.org/1999/xlink" x="0px" y="0px"
	 viewBox="0 0 32 32" style="enable-background:new 0 0 32 32;" xml:space="preserve">
<style type="text/css">
	.st0{fill:none;stroke:#000000;stroke-width:2;stroke-linecap:round;stroke-linejoin:round;stroke-miterlimit:10;}
</style>
<g>
	<path d="M3,8c0.6,0,1-0.4,1-1V4h3c0.6,0,1-0.4,1-1S7.6,2,7,2H3C2.4,2,2,2.4,2,3v4C2,7.6,2.4,8,3,8z"/>
	<path d="M13,4h6c0.6,0,1-0.4,1-1s-0.4-1-1-1h-6c-0.6,0-1,0.4-1,1S12.4,4,13,4z"/>
	<path d="M29,2h-4c-0.6,0-1,0.4-1,1s0.4,1,1,1h3v3c0,0.6,0.4,1,1,1s1-0.4,1-1V3C30,2.4,29.6,2,29,2z"/>
	<path d="M29,12c-0.6,0-1,0.4-1,1v6c0,0.6,0.4,1,1,1s1-0.4,1-1v-6C30,12.4,29.6,12,29,12z"/>
	<path d="M29,24c-0.6,0-1,0.4-1,1v3h-3c-0.6,0-1,0.4-1,1s0.4,1,1,1h4c0.6,0,1-0.4,1-1v-4C30,24.4,29.6,24,29,24z"/>
	<path d="M13.4,25.8l-3.5-2.6L2,28v1c0,0.6,0.4,1,1,1h14c0.6,0,1-0.4,1-1v-5.5l-3.4,2.3C14.2,26.1,13.7,26.1,13.4,25.8z"/>
	<path d="M17,14H3c-0.6,0-1,0.4-1,1v10.6l7.5-4.5c0.3-0.2,0.8-0.2,1.1,0.1l3.4,2.6l4-2.6V15C18,14.4,17.6,14,17,14z M7,21
		c-1.1,0-2-0.9-2-2s0.9-2,2-2s2,0.9,2,2S8.1,21,7,21z"/>
	<path d="M24,12c0,0.6,0.4,1,1,1s1-0.4,1-1V7c0-0.1,0-0.3-0.1-0.4c-0.1-0.2-0.3-0.4-0.5-0.5C25.3,6,25.1,6,25,6h-5c-0.6,0-1,0.4-1,1
		s0.4,1,1,1h2.6l-4.3,4.3c-0.4,0.4-0.4,1,0,1.4c0.2,0.2,0.5,0.3,0.7,0.3s0.5-0.1,0.7-0.3L24,9.4V12z"/>
</g>
</svg>
